<svg version="1.1" id="Layer_1" xmlns="http://www.w3.org/2000/svg" xmlns:xlink="http://www.w3.org/1999/xlink" x="0px" y="0px"
	 width="100%" viewBox="0 0 1024 1024" enable-background="new 0 0 1024 1024" xml:space="preserve">
<path fill="#000000" opacity="1.000000" stroke="none" 
	d="
M532.080444,425.959595 
	C498.335297,416.752563 471.912476,429.179474 450.099579,453.429871 
	C432.415924,473.089478 422.349182,496.695984 418.541718,522.878418 
	C417.270264,531.621704 417.104858,540.457825 417.112518,549.282532 
	C417.130585,570.100708 417.126282,590.921204 418.381805,611.713684 
	C418.582062,615.030518 418.885498,618.353394 419.383759,621.636658 
	C419.911469,625.114075 418.552795,626.498108 415.156952,627.471069 
	C383.783417,636.460693 352.723083,646.410095 322.654083,659.200073 
	C311.821625,663.807678 300.965790,668.388550 290.650452,674.246155 
	C289.028229,671.996643 289.697693,669.773193 289.696533,667.716553 
	C289.654907,592.233459 289.661041,516.750366 289.659424,441.267242 
	C289.659363,438.934448 289.564301,436.598358 289.658295,434.269623 
	C289.816315,430.355865 288.069946,429.635620 284.689911,430.961487 
	C272.761017,435.640869 260.818115,440.285370 248.850403,444.864349 
	C244.345016,446.588135 239.787979,448.191772 235.197617,449.674011 
	C231.536469,450.856232 227.725906,451.063202 225.096680,447.725403 
	C222.318771,444.198914 223.539139,440.533936 225.757843,437.084839 
	C241.525467,412.573242 257.265259,388.043762 273.040894,363.537292 
	C285.570953,344.072571 298.150299,324.639496 310.678192,305.173340 
	C312.433350,302.446106 314.728119,300.416962 317.473297,298.700470 
	C367.321899,267.531158 417.158173,236.342102 466.956604,205.092712 
	C479.511993,197.213974 492.046570,189.289810 504.356750,181.037521 
	C510.760895,176.744431 516.478882,176.946198 522.832092,181.034317 
	C550.425415,198.790009 578.191406,216.277283 605.787781,234.028381 
	C639.824768,255.922394 673.743896,277.999603 707.747681,299.945404 
	C711.885681,302.616058 715.252625,305.890076 717.957886,310.025604 
	C742.852112,348.081848 767.178162,386.500732 791.458801,424.949005 
	C794.125000,429.170807 796.880920,433.335846 799.575562,437.539795 
	C801.072021,439.874512 802.289490,442.364319 800.213257,444.896088 
	C798.196899,447.354736 795.413452,447.667023 792.467529,446.874176 
	C781.531677,443.931061 770.868713,440.158447 760.185425,436.423950 
	C753.336243,434.029663 746.672485,430.991425 739.602417,429.462463 
	C737.602051,431.795776 738.367798,434.234100 738.365662,436.452179 
	C738.316406,486.607574 738.329834,536.763000 738.328979,586.918457 
	C738.328857,594.620483 738.330750,594.454712 730.471191,594.099915 
	C715.172180,593.409241 699.864868,592.898560 684.559326,592.360107 
	C660.250549,591.504944 635.935608,591.047119 611.610229,591.317566 
	C610.306335,591.332092 608.928040,591.531555 607.161133,590.145874 
	C609.145203,577.383057 608.519897,564.116150 608.735413,550.867004 
	C608.966553,536.659546 607.550476,522.631775 604.256714,508.837311 
	C598.345764,484.081818 585.329102,463.581543 566.432312,446.682434 
	C556.383667,437.696136 545.096802,430.783478 532.080444,425.959595 
M451.805023,305.299133 
	C437.781494,322.583405 427.957733,342.134918 420.638489,363.037781 
	C418.131165,370.198395 418.524658,370.799622 425.886047,370.805023 
	C484.034119,370.847778 542.182190,370.887299 600.330261,370.894348 
	C602.600586,370.894623 604.992126,371.324890 607.049011,369.972565 
	C607.851685,367.839386 607.202026,365.900482 606.581970,364.033539 
	C596.937439,334.994202 581.621948,309.685760 557.867065,289.898315 
	C533.273804,269.412384 505.078094,266.688751 478.221771,282.281342 
	C468.142517,288.133270 460.087799,296.311920 451.805023,305.299133 
z"/>
<path fill="#000000" opacity="1.000000" stroke="none" 
	d="
M710.466736,648.540344 
	C681.794556,653.284302 653.754395,658.908752 626.297485,667.067261 
	C593.512268,676.809021 561.958557,689.705322 531.013855,704.259888 
	C496.631561,720.431396 463.073456,738.160522 429.739655,756.344360 
	C427.155609,757.754028 424.580292,758.375916 421.659332,758.373779 
	C357.495697,758.325806 293.332062,758.332825 229.168411,758.316589 
	C222.630432,758.314941 219.746643,756.544495 218.232651,751.751343 
	C216.866745,747.427002 218.790894,742.289551 223.438660,739.301270 
	C228.056335,736.332520 232.902206,733.703247 237.737518,731.090759 
	C282.028717,707.160645 326.990021,684.613342 374.487061,667.653503 
	C417.451691,652.312195 461.242310,639.879211 506.370941,632.578735 
	C533.445374,628.198792 560.662231,625.313354 588.041321,623.445862 
	C614.951721,621.610413 641.815063,619.297363 668.818359,620.037354 
	C694.770874,620.748535 720.693420,622.262817 746.513245,624.867065 
	C767.010071,626.934509 787.405090,630.046814 807.294128,635.726013 
	C811.138733,636.823792 811.113281,636.912842 813.462830,639.341370 
	C812.980286,641.282471 811.363647,641.239807 809.900696,641.217468 
	C776.685608,640.710876 743.763428,644.182617 710.466736,648.540344 
z"/>
<path fill="#000000" opacity="1.000000" stroke="none" 
	d="
M540.173828,724.092163 
	C577.234192,707.597107 614.934082,694.069092 653.779419,683.686890 
	C676.455872,677.626038 699.381836,672.979004 722.642700,669.940979 
	C726.431946,669.446167 730.261108,669.265015 734.061951,668.848755 
	C737.046570,668.521851 738.333191,669.719055 738.328674,672.757629 
	C738.288452,699.915833 738.262390,727.074219 738.358582,754.232117 
	C738.372620,758.185303 736.152283,758.364441 733.200317,758.359497 
	C709.874268,758.320312 686.548096,758.348389 663.221924,758.351318 
	C604.573364,758.358643 545.924805,758.363586 487.276215,758.369446 
	C483.346832,758.369873 479.417480,758.369507 473.865265,758.369507 
	C495.510956,744.348206 517.723206,734.400024 540.173828,724.092163 
z"/>
</svg>